<svg width="512" height="512" viewBox="0 0 512 512" fill="none" xmlns="http://www.w3.org/2000/svg">
<path d="M457.852 446.537C443.436 444.768 429.698 441.978 415.918 441.642C367.882 440.471 321.827 448.613 282.154 484.513C265.528 499.558 243.17 500.05 226.307 484.655C196.278 457.24 161.51 446.865 124.748 442.508C92.7287 438.714 61.35 443.251 30.2049 451.689C20.1101 454.424 16.1198 450.837 16.1153 438.725C16.0699 318.919 16.1351 199.113 16 79.308C15.9901 70.554 19.3886 66.4037 26.152 65.1902C34.0032 63.7815 41.8533 62.1695 49.7564 61.4309C54.8233 60.9574 56.4069 58.3075 56.2496 52.774C56.0602 46.1092 56.1977 39.4304 56.2269 32.7579C56.2833 19.9146 58.685 16.4487 69.6977 16.182C88.44 15.7281 107.099 17.5957 125.602 21.1534C161.199 27.9978 194.842 40.8989 224.478 66.1417C235.357 75.4083 244.631 86.6513 253.03 98.154C255.163 98.601 256.006 97.3491 256.801 96.2004C283.394 57.7569 319.129 37.9577 358.917 26.7695C383.162 19.9521 407.831 16.4292 432.773 16.005C436.332 15.9444 439.939 16.4459 443.455 17.1599C448.43 18.1703 451.01 22.0163 451.143 27.941C451.252 32.7884 451.328 37.6593 451.051 42.4903C450.751 47.7114 448.259 51.0204 443.683 51.0987C439.328 51.1733 436.645 47.6967 436.825 43.0952C437.228 32.8014 432.259 33.3014 425.943 33.5899C396.582 34.9313 367.799 39.8505 339.865 50.9891C307.937 63.7204 280.58 83.8675 261.231 117.423C256.692 125.295 251.57 125.691 247.107 118.087C219.926 71.7722 179.886 51.6236 135.279 40.4746C116.385 35.7523 97.1602 35.1223 78.0172 33.3087C71.0097 32.6449 70.7693 37.1447 70.7784 43.3069C70.8638 100.934 70.8018 158.562 70.8047 216.19C70.8072 267.751 70.8309 319.313 70.874 370.875C70.8765 373.827 71.1389 376.778 71.3297 380.761C122.019 374.758 169.213 386.339 213.254 415.871C217.003 410.238 216.905 405.836 213.612 400.655C206.281 389.124 206.318 379.463 213.689 368.503C216.271 364.663 216.249 361.073 215.541 356.67C211.972 334.48 203.755 314.786 192.754 296.585C185.982 285.382 185.721 283.266 192.533 272.594C215.516 236.588 229.987 195.449 243.972 154.005C244.637 152.035 245.152 149.988 245.88 148.053C247.404 144.002 249.528 140.441 253.669 140.363C257.793 140.285 260.183 143.59 261.648 147.722C265.116 157.505 268.444 167.358 271.841 177.176C283.427 210.661 296.749 243.008 315.126 272.212C322.338 283.674 321.987 285.007 314.853 297.012C303.818 315.58 295.616 335.58 292.05 358.096C291.362 362.442 291.888 365.34 294.313 368.738C301.984 379.489 302.297 389.443 294.81 399.869C291.21 404.883 290.534 409.112 294.129 415.527C337.95 386.843 384.992 374.368 434.715 380.677C437.537 376.392 436.605 372.297 436.61 368.488C436.693 313.59 436.65 258.692 436.764 203.795C436.778 197.095 435.418 187.724 443.946 187.803C452.152 187.879 451.273 196.869 451.275 203.838C451.29 263.285 451.302 322.733 451.283 382.181C451.278 396.709 447.972 400.207 436.122 398.489C385.875 391.201 339.31 403.936 296.06 434.559C286.055 441.644 283.037 440.18 280.305 426.531C276.538 407.712 276.538 407.719 259.652 407.713C251.954 407.71 244.255 407.731 236.558 407.634C232.211 407.579 230.175 409.866 229.519 415.07C227.86 428.234 225.833 441.334 223.875 454.444C223.45 457.293 223.55 459.797 225.324 462.043C239.079 479.458 258.818 484.467 274.224 470.13C307.03 439.598 345.64 429.249 386.076 425.101C414.436 422.192 442.355 425.807 470.121 432.298C471.849 432.702 473.645 432.697 475.273 432.868C477.949 429.485 476.957 425.67 476.96 422.2C477.019 346.071 477.003 269.943 477.03 193.815C477.031 190.489 477.072 187.122 477.504 183.849C478.094 179.383 480.586 176.653 484.402 176.899C488.057 177.134 490.602 179.76 491.154 184.267C491.445 186.651 491.373 189.107 491.374 191.53C491.387 273.423 491.399 355.315 491.385 437.208C491.383 451.464 488.032 454.63 476.484 451.511C470.492 449.892 464.502 448.265 457.852 446.537ZM56.1612 251.902C56.1692 197.633 56.2022 143.365 56.1255 89.0961C56.1207 85.7059 57.4403 81.6217 54.0656 79.161C51.9455 77.6151 34.287 80.3047 32.2661 82.2899C30.4678 84.0565 30.3382 86.4889 30.3253 88.9096C30.1285 125.859 29.8501 162.809 29.8152 199.759C29.7744 242.772 29.918 285.785 30.047 328.798C30.147 362.131 30.3403 395.463 30.5334 428.795C30.54 429.935 30.9939 431.071 31.5037 433.435C92.1334 417.86 151.553 420.683 208.744 450.619C213.317 438.027 212.891 435.281 205.834 430.56C163.884 402.497 118.99 391.477 71.0722 398.346C59.3117 400.032 56.2298 397.041 56.2172 382.876C56.1788 339.825 56.1762 296.773 56.1612 251.902ZM250.693 298.122C239.168 292.122 236.635 281.986 243.747 269.733C245.356 266.961 247.056 264.494 247.044 260.826C246.973 238.618 247.009 216.41 247.009 192.252C240.102 208.866 234.29 223.668 227.859 238.086C221.402 252.562 213.929 266.371 205.795 279.621C203.281 283.717 204.209 286.657 206.297 290.188C218.046 310.061 226.328 331.702 229.546 355.784C230.109 360 231.935 361.425 235.221 361.416C247.528 361.383 259.836 361.38 272.143 361.413C275.404 361.422 277.346 360.073 277.907 355.86C281.081 332.027 289.791 310.878 301.086 291.122C303.986 286.05 303.811 282.262 300.77 277.306C288.703 257.639 278.299 236.791 270.084 214.456C267.992 208.77 265.391 203.345 263.025 197.8C261.531 219.904 261.519 241.606 261.546 263.308C261.549 265.884 262.856 267.806 264.171 269.713C268.243 275.618 269.643 282.284 266.544 289.142C263.535 295.803 258.492 299.113 250.693 298.122ZM279.318 379.01C262.939 378.955 246.561 378.894 230.182 378.849C226.529 378.839 223.219 379.808 223.406 385.141C223.576 389.98 226.808 390.53 230.092 390.53C245.961 390.53 261.83 390.533 277.699 390.544C280.637 390.546 283.615 390.152 284.758 386.449C286.091 382.133 283.155 380.69 279.318 379.01Z" fill="#0D6E4F"/>
<path d="M376.854 173.644C382.221 155.249 393.061 149.3 406.996 157.056C410.716 159.127 413.629 159.048 417.09 157.059C426.772 151.494 436.443 145.878 446.298 140.764C451.55 138.038 454.836 134.671 456.157 127.399C458.278 115.726 467.187 108.778 476.646 109.645C485.907 110.494 494.535 119.765 495.746 130.169C497.236 142.975 492.099 153.517 482.294 157.581C476.332 160.053 470.533 159.196 465.383 155.067C461.675 152.095 458.428 152.418 454.649 154.627C447.068 159.057 439.399 163.29 431.669 167.349C423.948 171.402 417.026 174.864 414.745 186.943C412.571 198.457 402.311 202.955 391.639 200.346C381.93 197.972 376.501 188.521 376.854 173.644Z" fill="#34D399"/>
<path d="M412.786 118.378C400.843 134.865 385.516 143.778 369.123 150.413C351.601 157.504 335.448 166.657 324.886 185.862C321.776 191.516 319.589 197.568 317.59 203.807C316.077 208.531 313.812 213.442 308.817 211.649C303.474 209.73 302.431 204.203 304.123 198.286C311.508 172.475 326.162 154.229 346.787 142.778C355.569 137.902 364.927 134.487 373.962 130.23C383.325 125.819 391.815 119.835 399.037 111.299C402.863 106.777 404.303 102.741 402.301 96.1454C399.312 86.3006 402.407 77.5944 408.993 70.9859C415.789 64.1657 424.283 63.5171 431.844 69.0652C439.222 74.4788 442.813 82.4458 441.88 92.8302C440.891 103.845 432.849 112.742 423.273 113.302C419.394 113.529 415.476 113.074 412.786 118.378Z" fill="#34D399"/>
<path d="M309.281 117.046C317.47 108.764 327.66 105.753 335.668 98.1067C339.523 94.4251 342.951 91.3596 344.759 85.4182C347.65 75.9159 355.86 71.6885 363.487 74.5323C370.677 77.2131 375.428 86.5728 374.017 95.2781C372.528 104.471 365.268 111.248 356.982 109.447C342.379 106.272 334.191 117.471 326.369 128.234C321.252 135.276 315.983 141.491 309.116 145.769C306.522 147.384 303.535 148.09 301.495 144.696C299.636 141.602 300.998 138.723 303.177 136.789C308.725 131.866 306.887 123.965 309.281 117.046Z" fill="#34D399"/>
<path d="M338.759 216.75C341.459 213.302 342.861 211.151 346.366 208.203C349.871 205.256 359.222 208.302 364.272 214.012C366.577 216.617 366.288 219.574 364.934 222.253C362.003 228.049 357.785 232.283 351.776 230.655C346.238 229.154 343.003 231.972 340.178 236.702C338.415 239.655 336.746 242.689 335.051 245.698C334.346 246.951 333.759 248.306 332.983 249.492C330.925 252.634 328.318 254.533 325.05 252.356C321.709 250.131 320.68 246.607 322.379 242.338C326.234 232.656 331.809 224.494 338.759 216.75Z" fill="#34D399" stroke="#34D399"/>
<path d="M472.602 57.5733C481.653 58.857 485.465 63.4474 484.88 71.5251C484.395 78.2062 479.799 82.5414 473.671 81.8821C468.525 81.3285 465.055 78.1237 464.412 71.9178C463.691 64.9662 465.37 59.3849 472.602 57.5733Z" fill="#34D399"/>
<path d="M472.602 57.5733C481.653 58.857 485.465 63.4474 484.88 71.5251C484.395 78.2062 479.799 82.5414 473.671 81.8821C468.525 81.3285 465.055 78.1237 464.412 71.9178C463.691 64.9662 465.37 59.3849 472.602 57.5733Z" fill="#34D399"/>
<path d="M350.66 200.444C361.901 202.039 366.636 207.743 365.909 217.781C365.307 226.084 359.598 231.471 351.987 230.652C345.596 229.964 341.287 225.981 340.488 218.269C339.592 209.631 341.677 202.695 350.66 200.444Z" fill="#34D399" stroke="#34D399"/>
</svg>
